<mxfile host="app.diagrams.net" modified="2023-01-30T08:43:53.833Z" agent="5.0 (Macintosh; Intel Mac OS X 10_15_7) AppleWebKit/605.1.15 (KHTML, like Gecko) Version/16.2 Safari/605.1.15" etag="kMrXrJMkjy-z7HrYnBvb" version="20.8.13" type="github">
  <diagram name="Page-1" id="e7e014a7-5840-1c2e-5031-d8a46d1fe8dd">
    <mxGraphModel dx="1122" dy="761" grid="1" gridSize="10" guides="1" tooltips="1" connect="1" arrows="1" fold="1" page="1" pageScale="1" pageWidth="1169" pageHeight="826" background="none" math="0" shadow="0">
      <root>
        <mxCell id="0" />
        <mxCell id="1" parent="0" />
        <mxCell id="2" value="Database" style="swimlane;whiteSpace=wrap" parent="1" vertex="1">
          <mxGeometry x="147" y="128" width="297.5" height="570" as="geometry" />
        </mxCell>
        <mxCell id="38" value="" style="ellipse;shape=endState;fillColor=#000000;strokeColor=#ff0000" parent="2" vertex="1">
          <mxGeometry x="133.75" y="510" width="30" height="30" as="geometry" />
        </mxCell>
        <mxCell id="39" value="" style="endArrow=open;strokeColor=#FF0000;endFill=1;rounded=0" parent="2" target="38" edge="1">
          <mxGeometry relative="1" as="geometry">
            <mxPoint x="149.25" y="462" as="sourcePoint" />
          </mxGeometry>
        </mxCell>
        <mxCell id="3" value="Sistem" style="swimlane;whiteSpace=wrap" parent="1" vertex="1">
          <mxGeometry x="444.5" y="128" width="280" height="570" as="geometry" />
        </mxCell>
        <mxCell id="4" value="User" style="swimlane;whiteSpace=wrap" parent="1" vertex="1">
          <mxGeometry x="724.5" y="130" width="295.5" height="568" as="geometry" />
        </mxCell>
        <mxCell id="5" value="" style="ellipse;shape=startState;fillColor=#000000;strokeColor=#ff0000;" parent="4" vertex="1">
          <mxGeometry x="126.38999999999999" y="32" width="30" height="30" as="geometry" />
        </mxCell>
        <mxCell id="6" value="" style="edgeStyle=elbowEdgeStyle;elbow=horizontal;verticalAlign=bottom;endArrow=open;endSize=8;strokeColor=#FF0000;endFill=1;rounded=0;entryX=0.5;entryY=0.04;entryDx=0;entryDy=0;entryPerimeter=0;" parent="4" target="7" edge="1">
          <mxGeometry x="126.88999999999999" y="32" as="geometry">
            <mxPoint x="141.89" y="102" as="targetPoint" />
            <mxPoint x="141.89" y="62" as="sourcePoint" />
          </mxGeometry>
        </mxCell>
        <mxCell id="7" value="Data pelaporan" style="" parent="4" vertex="1">
          <mxGeometry x="86.88999999999999" y="102" width="110" height="50" as="geometry" />
        </mxCell>
        <mxCell id="Irgjr3PbTsrb-JRDGq52-45" value="no" style="edgeStyle=elbowEdgeStyle;elbow=horizontal;align=left;verticalAlign=bottom;endArrow=open;endSize=8;strokeColor=#FF0000;endFill=1;rounded=0;exitX=0;exitY=0.5;exitDx=0;exitDy=0;" edge="1" parent="4" source="Irgjr3PbTsrb-JRDGq52-41">
          <mxGeometry x="-0.0909" y="5" relative="1" as="geometry">
            <mxPoint x="86.88999999999999" y="127" as="targetPoint" />
            <Array as="points">
              <mxPoint x="61.889999999999986" y="176.5" />
            </Array>
            <mxPoint x="56.889999999999986" y="234" as="sourcePoint" />
            <mxPoint as="offset" />
          </mxGeometry>
        </mxCell>
        <mxCell id="Irgjr3PbTsrb-JRDGq52-41" value="Login" style="rhombus;fillColor=#ffffc0;strokeColor=#ff0000;" vertex="1" parent="4">
          <mxGeometry x="101.88999999999999" y="174" width="80" height="40" as="geometry" />
        </mxCell>
        <mxCell id="10" value="Entry Data" style="" parent="4" vertex="1">
          <mxGeometry x="104.63999999999999" y="234" width="74.5" height="38" as="geometry" />
        </mxCell>
        <mxCell id="Irgjr3PbTsrb-JRDGq52-56" value="yes" style="edgeStyle=elbowEdgeStyle;elbow=horizontal;align=left;verticalAlign=bottom;endArrow=open;endSize=8;strokeColor=#FF0000;endFill=1;rounded=0;entryX=1.003;entryY=0.435;entryDx=0;entryDy=0;entryPerimeter=0;" edge="1" parent="4" source="Irgjr3PbTsrb-JRDGq52-41" target="10">
          <mxGeometry x="0.0476" y="-10" relative="1" as="geometry">
            <mxPoint x="194.39" y="244" as="targetPoint" />
            <Array as="points">
              <mxPoint x="224.39" y="234" />
            </Array>
            <mxPoint x="129.39" y="204" as="sourcePoint" />
            <mxPoint as="offset" />
          </mxGeometry>
        </mxCell>
        <mxCell id="Irgjr3PbTsrb-JRDGq52-59" value="" style="edgeStyle=elbowEdgeStyle;elbow=horizontal;verticalAlign=bottom;endArrow=open;endSize=8;strokeColor=#FF0000;endFill=1;rounded=0;" edge="1" parent="4">
          <mxGeometry x="-21.110000000000014" y="-6" as="geometry">
            <mxPoint x="141.39" y="174" as="targetPoint" />
            <mxPoint x="140.89" y="152" as="sourcePoint" />
          </mxGeometry>
        </mxCell>
        <mxCell id="Irgjr3PbTsrb-JRDGq52-61" value="Melihat Detail Data Pelaporan" style="" vertex="1" parent="4">
          <mxGeometry x="24.389999999999986" y="324" width="175" height="28" as="geometry" />
        </mxCell>
        <mxCell id="Irgjr3PbTsrb-JRDGq52-51" value="Mengubah Data Pelaporan" style="" vertex="1" parent="4">
          <mxGeometry x="24.389999999999986" y="364" width="175" height="28" as="geometry" />
        </mxCell>
        <mxCell id="Irgjr3PbTsrb-JRDGq52-64" value="" style="edgeStyle=elbowEdgeStyle;elbow=horizontal;verticalAlign=bottom;endArrow=open;endSize=8;strokeColor=#FF0000;endFill=1;rounded=0;entryX=1.002;entryY=0.417;entryDx=0;entryDy=0;entryPerimeter=0;" edge="1" parent="4" target="Irgjr3PbTsrb-JRDGq52-51">
          <mxGeometry x="-711.26" y="101.59" as="geometry">
            <mxPoint x="240.39" y="377.4960000000001" as="targetPoint" />
            <mxPoint x="265.39" y="294" as="sourcePoint" />
            <Array as="points">
              <mxPoint x="265.48" y="394.59000000000003" />
              <mxPoint x="-85.51999999999998" y="404.59000000000003" />
              <mxPoint x="315.48" y="394.59000000000003" />
              <mxPoint x="215.48000000000002" y="387.59000000000003" />
              <mxPoint x="-84.51999999999998" y="394.59000000000003" />
              <mxPoint x="155.48000000000002" y="384.59000000000003" />
              <mxPoint x="-85.51999999999998" y="414.59000000000003" />
              <mxPoint x="-54.51999999999998" y="414.59000000000003" />
              <mxPoint x="-24.519999999999982" y="404.59000000000003" />
              <mxPoint x="45.48000000000002" y="394.59000000000003" />
              <mxPoint x="205.48000000000002" y="394.59000000000003" />
            </Array>
          </mxGeometry>
        </mxCell>
        <mxCell id="Irgjr3PbTsrb-JRDGq52-65" value="Hapus Data Pelaporan" style="" vertex="1" parent="4">
          <mxGeometry x="24.389999999999986" y="404" width="175" height="28" as="geometry" />
        </mxCell>
        <mxCell id="Irgjr3PbTsrb-JRDGq52-66" value="" style="edgeStyle=elbowEdgeStyle;elbow=horizontal;verticalAlign=bottom;endArrow=open;endSize=8;strokeColor=#FF0000;endFill=1;rounded=0;entryX=0.997;entryY=0.516;entryDx=0;entryDy=0;entryPerimeter=0;" edge="1" parent="4" target="Irgjr3PbTsrb-JRDGq52-65">
          <mxGeometry x="-858.13" y="16.670000000000016" as="geometry">
            <mxPoint x="200.39499999999998" y="418.9240000000001" as="targetPoint" />
            <mxPoint x="265.52" y="337.08" as="sourcePoint" />
            <Array as="points">
              <mxPoint x="265.61" y="437.6700000000001" />
              <mxPoint x="-85.38999999999999" y="447.6700000000001" />
              <mxPoint x="315.61" y="437.6700000000001" />
              <mxPoint x="215.61" y="430.6700000000001" />
              <mxPoint x="-84.38999999999999" y="437.6700000000001" />
              <mxPoint x="155.61" y="427.6700000000001" />
              <mxPoint x="-85.38999999999999" y="457.6700000000001" />
              <mxPoint x="-54.389999999999986" y="457.6700000000001" />
              <mxPoint x="-24.389999999999986" y="447.6700000000001" />
              <mxPoint x="45.610000000000014" y="437.6700000000001" />
              <mxPoint x="205.61" y="437.6700000000001" />
            </Array>
          </mxGeometry>
        </mxCell>
        <mxCell id="Irgjr3PbTsrb-JRDGq52-58" value="" style="edgeStyle=elbowEdgeStyle;elbow=horizontal;verticalAlign=bottom;endArrow=open;endSize=8;strokeColor=#FF0000;endFill=1;rounded=0;exitX=1.001;exitY=0.774;exitDx=0;exitDy=0;exitPerimeter=0;entryX=0.75;entryY=0.5;entryDx=0;entryDy=0;entryPerimeter=0;" edge="1" parent="4" source="10">
          <mxGeometry x="-37.85000000000002" y="99" as="geometry">
            <mxPoint x="265.015" y="291.5" as="targetPoint" />
            <mxPoint x="184.39" y="264" as="sourcePoint" />
            <Array as="points">
              <mxPoint x="264.39" y="274" />
              <mxPoint x="494.3899999999999" y="264" />
              <mxPoint x="143.39" y="274" />
              <mxPoint x="544.3899999999999" y="264" />
              <mxPoint x="444.3899999999999" y="257" />
              <mxPoint x="144.39" y="264" />
              <mxPoint x="384.3899999999999" y="254" />
              <mxPoint x="143.39" y="284" />
              <mxPoint x="174.39" y="284" />
              <mxPoint x="204.39" y="274" />
              <mxPoint x="274.39" y="264" />
              <mxPoint x="434.3899999999999" y="264" />
            </Array>
          </mxGeometry>
        </mxCell>
        <mxCell id="Irgjr3PbTsrb-JRDGq52-63" value="" style="edgeStyle=elbowEdgeStyle;elbow=horizontal;verticalAlign=bottom;endArrow=open;endSize=8;strokeColor=#FF0000;endFill=1;rounded=0;entryX=1;entryY=0.482;entryDx=0;entryDy=0;entryPerimeter=0;exitX=0.75;exitY=0.5;exitDx=0;exitDy=0;exitPerimeter=0;" edge="1" parent="4" target="Irgjr3PbTsrb-JRDGq52-61">
          <mxGeometry x="2.240000000000009" y="169.59000000000003" as="geometry">
            <mxPoint x="309.29999999999995" y="404" as="targetPoint" />
            <mxPoint x="265.015" y="291.5" as="sourcePoint" />
            <Array as="points">
              <mxPoint x="264.89" y="314" />
              <mxPoint x="183.48000000000002" y="344.59000000000003" />
              <mxPoint x="584.48" y="334.59000000000003" />
              <mxPoint x="484.48" y="327.59000000000003" />
              <mxPoint x="184.48000000000002" y="334.59000000000003" />
              <mxPoint x="424.48" y="324.59000000000003" />
              <mxPoint x="183.48000000000002" y="354.59000000000003" />
              <mxPoint x="214.48000000000002" y="354.59000000000003" />
              <mxPoint x="244.48000000000002" y="344.59000000000003" />
              <mxPoint x="314.48" y="334.59000000000003" />
              <mxPoint x="474.48" y="334.59000000000003" />
            </Array>
          </mxGeometry>
        </mxCell>
        <mxCell id="Irgjr3PbTsrb-JRDGq52-47" value="" style="shape=line;strokeWidth=6;strokeColor=#ff0000;rotation=0;" vertex="1" parent="4">
          <mxGeometry x="220" y="285" width="60" height="15" as="geometry" />
        </mxCell>
      </root>
    </mxGraphModel>
  </diagram>
</mxfile>
